<svg xmlns="http://www.w3.org/2000/svg" viewBox="0 0 673.26 551.55">
  <g data-name="Layer 2">
    <path fill="#e09d64" d="M527.11 144.14a22.52 22.52 0 0 1-4.12-4.1l-.3-.45a6.47 6.47 0 0 1-1.72.77c-1.47.4-1.92 1.25-2.7 2.38-.71 1.08-1.67 2.1-2.44 3.2a14.16 14.16 0 0 1-2.06 2.5c-2.02 1.88-3.94 3.8-6.11 5.52l-.72.57a21.55 21.55 0 0 1 2.68 3.06c2.74 3.94 4 8.85 5.91 13.36h27.95a242.28 242.28 0 0 0-16.37-26.81Zm-21.56-26.47a33.35 33.35 0 0 1-6.98-4.94c-4.34-4.34-9.68-7.37-14.34-11.4-4.66-4-8.56-8.67-13.5-12.33q-7.37-5.45-15.11-10.33c-3.17-2-5.47-5.51-8.02-8.6q-3-1.97-6.17-3.68c-5.41-2.87-10.86-6.08-16.5-8.55-2.68-1.17-5.8-1.26-8.94-1.26l-.72-.28c-3.26.22-6.52.47-9.32-.51-5.79-2.04-10.88-5.9-16.84-7.51a26.5 26.5 0 0 1-4.55-1.77c-1.4-.35-2.8-.68-4.2-1-2.76-1.9-5.53-3.8-8.6-4.36-4.13-.77-8.53-.24-12.87-.04a31.86 31.86 0 0 1-5.86 0c-6.08-.68-12.17-1.5-18.36-1.73-6.09-.23-12.16 2.1-18.35 2.32-2.87.11-5.85-.8-8.8-1.68q-9.38.66-18.66 2.08c-2.87 1.75-5.72 3.56-8.72 4.12-6.07 1.15-12.07 1.76-17.97 3.32-5.98 1.59-12.02 2.5-17.79 4.51a71.35 71.35 0 0 1-7.94 2.11 3.28 3.28 0 0 1 .32.74c.3 1.38 1.51 2.62 1.89 4.06.83 3.07 1.03 6.18 2.15 9.2a30.63 30.63 0 0 0 1.4 4.15 8.2 8.2 0 0 0 1.9 2.23l2.22-.9c5.64-2.18 11.43-4.7 17.4-6.4 5.88-1.66 12.24-1.93 18.33-3.12 6-1.17 11.98-3.37 18.14-4.07s12.53.62 18.62.43c6.2-.19 12.41-1.2 18.52-.88 6.19.32 11.89 4.75 17.96 5.58 6.13.83 12.79-1.8 18.77-.45 6.03 1.34 12.64 1.11 18.5 2.94 5.9 1.83 10.94 6.41 16.64 8.73s11.4 4.8 16.88 7.57c5.5 2.77 11.34 5.1 16.58 8.32s9.43 8.09 14.4 11.73c4.95 3.64 11.44 5.49 16.1 9.52 4.64 4.04 5.92 11.64 10.22 16.05s8.34 8.78 12.26 13.53a23.92 23.92 0 0 0 3.32 3.2 8.95 8.95 0 0 0 1.55-2.2c1.89-4.02 3.34-7.9 6.05-11.47 2.15-2.81 4.95-5.45 6.42-8.68q-3.62-4.23-7.43-8.3Zm-20.09 51.45q-1.81.84-3.54 1.83h5.05c-.49-.62-.99-1.23-1.51-1.83ZM232.55 79.16c-2.43-1.5-5.03-2.64-7.16-4.58a49.95 49.95 0 0 1-5.57-6.06 46.76 46.76 0 0 1-3.2-3.96l-.8.38q-2.68 1.65-5.45 3.15c-5.45 2.88-9.62 7.75-14.8 11.01-3.67 2.3-8.23 3.25-12.32 4.85a54.04 54.04 0 0 0-4.55 3 55.21 55.21 0 0 0-5.96 5.28c-2.24 2.77-4.36 5.7-7 7.96a38.3 38.3 0 0 1-7.8 4.72 248.71 248.71 0 0 0-21.9 23.08 6.65 6.65 0 0 1 .84 2.95c.1 2.43 1.44 4.22 1.9 6.52.82 4.28 3.54 6.89 6.84 9.34a33.84 33.84 0 0 1 3.7 2.5c.47.37.92.69 1.37 1.03 2.64-3.08 5.41-6 8.11-9.11 4-4.64 8.17-8.87 12.56-13.17s7.83-9.41 12.59-13.36c4.73-3.92 8.92-8.46 13.97-12 5.04-3.5 9.92-7.27 15.28-10.36 5.3-3.08 10.5-6.53 16.09-9.17q2.56-1.23 5.15-2.43a9.8 9.8 0 0 0-1.89-1.57Zm248.34 84.41c-3.82-4.85-4.7-12.23-8.94-16.7s-10.56-6.86-15.2-10.94-7.49-10.5-12.49-14.12-10.01-7.64-15.33-10.8c-5.3-3.14-12.77-2.39-18.35-5.05-5.57-2.64-11.45-4.15-17.26-6.28-5.77-2.11-10.77-6.58-16.75-8.17-5.94-1.56-11.83-4.05-17.96-5.07-6.05-1-12.67 2.75-18.86 2.32-6.11-.43-12.15-6.24-18.35-6.13-6.12.13-11.9 6.17-18.1 6.87-6.18.7-12.1 1.26-18.1 2.49-6.1 1.26-11.75 3.13-17.6 4.9-4.43 1.36-9.32 1.22-13.86 2.04.11.49.22 1 .28 1.49.42 3.6.85 7.16 1.55 10.73.58 2.94.86 6.73 2.9 9.07a30.53 30.53 0 0 1 2.51 3.44 46.44 46.44 0 0 1 8.94-4.42 169.51 169.51 0 0 1 17.75-4.56c5.94-1.3 11.71-4.12 17.9-4.81s12.41-2.34 18.48-2.38c6.21-.06 12.38 2.4 18.45 2.98 6.17.6 11.7 4.2 17.7 5.43 5.88 1.21 11.95.9 17.65 2.59.4-1.1.8-2.2 1.15-3.29l.06-.4a.36.36 0 0 1 .19-.31c.45-1.38.84-2.79 1.17-4.2.56-2.48 1.83-4.48 1.7-7.14a.5.5 0 0 1 .45-.53v-.01l.2-.72c.17-.96.29-1.94.4-2.85a.5.5 0 1 1 1 .02 8.5 8.5 0 0 1-.27 2.85.52.52 0 0 1 .12.34.1.1 0 0 1-.02.07.46.46 0 0 1-.06.5 8.79 8.79 0 0 1-.56 1.82l-.06.1c0 .47.04.9.06 1.18a23.76 23.76 0 0 1-.59 3.38 46.35 46.35 0 0 1-1.71 7.26c-.25.87-.5 1.76-.76 2.62 5.38 1.33 11.24 1.4 16.24 3.59 5.64 2.47 10.75 6.28 16.1 9.32s11.3 5.37 16.3 8.96 7.4 10.43 12 14.52a172.5 172.5 0 0 1 13.1 12.71c.84.92 1.72 1.8 2.61 2.67h15.91c2.09-1.76 4.24-3.45 6.37-5.16q1.14-.91 2.36-1.71Zm185.25 7.38h-82.59l-3.1-4.61c-1.7-2.53-2.51-5.85-3.96-8.55a77.33 77.33 0 0 1-4.45-9.28c-.99-2.6-2.46-4.5-2.85-7.35a26.54 26.54 0 0 0-3.15-8.58c-2.9-5.44-6.81-9.98-10.15-15.17-1.23-1.92-2.3-4.6-3.87-6.26-2.07-2.19-5.2-3.62-7.54-5.59-3.25-2.73-6.43-6.24-10.34-8.09a1.89 1.89 0 0 0-.19-.2 3.84 3.84 0 0 0-1-4.93q-5.01-4.08-10.3-7.8a33.95 33.95 0 0 1-9.26-9.74c-2.64-3.87-6.75-7.02-10.52-9.73-1.76-1.25-4.34-1.96-6.64-2.89l-1.25-.94a5.08 5.08 0 0 0-1.83-3.28c-.32-.25-.64-.46-.96-.68a4.01 4.01 0 0 0-1.96-2.57q-1.8-1.08-3.68-2.03c-2.56-1.63-4.84-3.5-7.41-5.4a20.25 20.25 0 0 0-6.43-2.89q-3.63-2.58-7.08-5.39c-7.62-6.17-16.84-9.6-26.14-12.4-4.11-1.24-7.49-2.22-11.26-4.46-4.07-2.44-7.98-3.3-12.5-4.34-9.83-2.26-18.66-8.58-28.83-9.41a20.84 20.84 0 0 0-3.77.15c-2.92-.72-5.87-1.81-8.75-2.53-1.74-.43-3.55-.47-5.28-.83s-3.93-2.45-5.17-3.56A8.06 8.06 0 0 0 361.35 0h-3.69c-3.08 1-5.94 3.96-9.82 3.84a3.56 3.56 0 0 0-1.11.15c-4.8-.22-9.59-.24-14.36-.45-4.49-.2-8.07-.13-12.48-1.36-4.64-1.28-8.34-1.07-13.06-.94-9.92.28-21.23 6.9-31.06 4.11a3.9 3.9 0 0 0-2.89.19 39.48 39.48 0 0 0-9-.47c-2.47.26-4.84 1.6-7.07 2.64-2.34 1.1-5.9 1.6-8.45 2.03a50.6 50.6 0 0 0-16.33 5.55 3.85 3.85 0 0 0-2 2.36c-2.28.45-4.53.94-6.89 1.22-6.8.87-11.64 5.9-18.09 7.3-2.49.53-5.15.2-7.65.72-2.63.57-4.76 2.47-6.63 4.24-1.84 1.76-4.09 2.95-5.88 4.76-2.62 2.64-4.38 5.19-7.58 7.3-5.25 3.45-10.94 5.94-15.92 9.84-2.38 1.87-4.08 4.72-6.57 6.4-2.2 1.49-5.52 1.26-8.01 2.32-5.57 2.34-9.26 8.03-12.68 12.71-3.7 5.06-8.01 9.83-11.92 14.73a66.7 66.7 0 0 0-6.22 10.02q-7.29 8.28-13.89 17.13a10.9 10.9 0 0 1-4.3 2.98 24.19 24.19 0 0 0-13.7 10.46c-3.05 4.51-3.73 10.25-6.12 14.98-2.8 5.57-6.66 10.62-10.05 15.8-2.25 3.42-4.7 6.63-5.85 10.39H7.12A7.12 7.12 0 0 0 0 178.07v.01a7.12 7.12 0 0 0 7.12 7.12h659.02a7.12 7.12 0 0 0 7.12-7.12v-.01a7.12 7.12 0 0 0-7.12-7.12Zm-101.37-24.32a60.8 60.8 0 0 1 .95 7.4l.08.53a3.8 3.8 0 0 1-.1-.57 60.8 60.8 0 0 0-.95-7.4 5.6 5.6 0 0 0-.15-.54 5.58 5.58 0 0 1 .17.58Zm-19.65-22.36a3.23 3.23 0 0 1-.63 1.73l-.03-.02a3.48 3.48 0 0 0 .66-1.71Zm-10.99-14.01-.03-.03-.24-.39a5 5 0 0 1 .27.42Zm-15.78-21.01c-.56-1.15-1-2.33-1.48-3.51.49 1.18.93 2.36 1.48 3.51Zm-349.53 76.58-.61-.44c.02 0 .03-.04.04-.08a6.77 6.77 0 0 1 .57.5Zm3.6.75c-.3-.07-.47-.36-.77-.47a5.5 5.5 0 0 1-2.28-.83c-.06-.04 0-.24-.04-.3a2.97 2.97 0 0 1 .17-.32l-.22-.11.18-.02c.1.05.53.11.53.17 0 .36.98.77 1.57 1.15h-.12c.2.13.74-.13 1-.08.62.15.6.96-.02.81Zm252.48 4.37c-4.09-3.03-8.85-5.21-13.02-8.14-4.98-3.5-9.55-7.62-14.94-10.5-5.36-2.9-10.22-7.21-15.92-9.44a35.89 35.89 0 0 0-6.19-1.71c-2.05 7.26-4.83 14.37-6.24 21.75a.5.5 0 0 1-.98-.16c.8-4.98 2.53-9.77 3.4-14.7.43-2.46.8-4.91 1.2-7.38-3.11-.53-6.26-.97-9.26-1.74-5.87-1.5-12.15-.6-18.24-1.4a145.2 145.2 0 0 0-18.01-1.16c-6.04-.04-11.96-.44-18.11.24-6.15.7-12.64-.96-18.5.42-6 1.41-10.81 6.47-16.5 8.56l-1.39.51a24.86 24.86 0 0 1 1.12 4.8c.4 3.33 2.2 6.91 3.71 9.86q1.34 2.62 2.47 5.35c4.53-1.19 9.4-1.64 13.96-2.8 4.76-1.28 9.92-.21 15.01-.21a28.18 28.18 0 0 0 3.06-.16c6.07-.68 11.8-4.62 17.75-4.45 6.07.2 11.92 2.43 17.8 3.45 5.99 1.04 11.29 3.83 16.96 5.7 3.28 1.08 6.48 2.12 9.63 3.31H268.16q3.66-1.97 7.49-3.59c.4-.17.81-.3 1.21-.46-.81-1.94-1.58-3.86-2.41-5.8-1.29-2.99-2.89-5.68-4.42-8.53q-1.25-2.4-2.32-4.87a96.7 96.7 0 0 0-10.86 4.6c-5.51 2.83-11.64 4.36-16.66 7.76-3.85 2.6-7 6.05-10.3 9.31.29.53.55 1.08.76 1.53l.03.05h-35.29l.23-.25c4.08-4.6 5.13-12.13 9.68-16.28q1.89-1.7 3.89-3.26a7.52 7.52 0 0 0-1.17-1.46.5.5 0 0 1-.17-.45c-.23-.28-.42-.58-.68-.87-.32-.34-.7-.62-1.02-.98a1.44 1.44 0 0 1-.2-.3 2.22 2.22 0 0 1-.61-.87c-.13-.41.4-.96.79-.58l.43.45a1 1 0 0 1 .2.4c.31.32.69.62.9.84.32.34.62.7.92 1.06a.5.5 0 0 1 .25.19.41.41 0 0 0 .1.15.54.54 0 0 1 .65.4c-.05-.2.42.54.77 1.09 3.2-2.45 6.55-4.75 9.76-7.13 4.92-3.64 9.4-8.4 14.73-11.5 5.28-3.1 13.13-1.34 18.75-3.91a4.4 4.4 0 0 0 .53-.26 14.32 14.32 0 0 1-3.38-4.42 19.36 19.36 0 0 1-.7-3.37c-.36-1.63-.92-3.17-1.36-4.78-.8-2.86-1.5-5.75-2.13-8.65-.3-1.36-.65-2.7-1.07-4.02-3.96 2.7-7.36 6.45-11.55 8.64-5.5 2.86-12.75 2.49-17.92 5.83q-7.86 4.98-15.24 10.67c-4.84 3.83-6.8 10.9-11.26 15.15s-11.16 6.24-15.22 10.88a67.98 67.98 0 0 0-6.58 9.55l.58.47a.46.46 0 0 1 .13.43c.1.08.12.19.2.26.05.04-.03.23.03.27a3.96 3.96 0 0 1 .5.22c-.06.1-.15.27-.18.25-.2-.1-.53.19-.72.06 0 .02.07.07.1.1a.58.58 0 0 0-.11.32 5.8 5.8 0 0 1-.53-.46l-.78-.7q-1.43 2.32-3 4.55c-.53.75-1.05 1.5-1.55 2.27h-25.4l.23-.36c3.22-5.25 5.97-10.6 9.62-15.55.62-.87 1.3-1.68 1.96-2.5l-.76-.35a.55.55 0 0 1-.24-.3c-.55-.2-1.08-.42-1.63-.64a.5.5 0 0 1-.26-.47 1.5 1.5 0 0 1-1.26-.6c-.06-.1-.04-.3-.12-.37-.47-.15-.8-.5-1.26-.62-1.28-.34-2-2.11-3-2.92l-.15-.12c-.06-.05-.47.36-.53.34-.92-.4-2.07-.41-2.92-.96a13.73 13.73 0 0 0-3.7-1.32 21.56 21.56 0 0 0-4.22-.73l-2.25.49c-.38.07-.73.17-1.11.26a1.35 1.35 0 0 1-.32.1 6.04 6.04 0 0 1-1.2.24l-.2.04c-1.41 3.92-2.32 8.15-4.5 11.58-3.2 5.1-7.5 9.44-10.37 14.76H98.3q2.31-4.58 4.82-9.06a19.26 19.26 0 0 1 1.94-5.34 26.82 26.82 0 0 1 4.36-5.32q5.66-9.03 12.04-17.58a26.3 26.3 0 0 1 3.77-7.52c3.77-4.74 6.77-10.38 10.86-14.83s9.34-8.03 13.75-12.18 9.08-8.2 13.77-12.06a18.82 18.82 0 0 1 6.81-3.13 250.51 250.51 0 0 1 32.26-21.1c1.86-2.65 3.79-5.23 6.41-6.55 5.38-2.74 11.92-3.34 17.52-5.68a20.85 20.85 0 0 1 4.7-1.26 253.56 253.56 0 0 1 27-9 19.8 19.8 0 0 1 2.88-1.04c3.68-.96 7.45-1.68 11.22-2.37 2.9-.63 5.83-1.17 8.79-1.7 5.15-1.34 10.2-3.87 15.52-4.47 2.89-.32 5.87.47 8.83 1.38 6.19-.5 12.41-.76 18.62-.8 3.05-1.34 6.13-2.64 9.17-2.54 6.09.19 12.24 1.32 18.24 1.92 6.05.62 12.03 2.36 17.97 3.42a53.28 53.28 0 0 1 9.3 2.84q9.95 2.14 19.71 5.08a56.65 56.65 0 0 1 6.15 1.58c5.77 1.89 12.28 2.02 17.88 4.32 3.53 1.45 6.45 4.26 9.49 6.83q6.62 3.06 13.05 6.5c3.45.95 6.94 1.84 9.92 3.6a28.29 28.29 0 0 1 6.68 6.1 256.53 256.53 0 0 1 39.74 31.14c3.96 2.34 8.5 4.12 11.55 7.36 4.15 4.4 7.05 10.13 10.88 14.83a17.68 17.68 0 0 1 2.92 5.97 254.8 254.8 0 0 1 18.36 27.22c2.71 4.27 5.62 8.47 7.9 12.98l.23.46Zm241.24 185.2H7.12A7.12 7.12 0 0 0 0 363.27v.01a7.12 7.12 0 0 0 7.12 7.12h66.54a14.78 14.78 0 0 1-11.17.71q4.63 12.61 10.49 24.73A148.04 148.04 0 0 1 91.06 400c11.69 3.36 15.96 8.48 17.69 11.66 1.5 3.01 4.36 10.98-.72 17.68a14.88 14.88 0 0 1-12.12 5.33q7.79 11 16.62 21.18a133.97 133.97 0 0 1 18.5-.57c12.18.25 17.62 4.1 20.16 6.83 2.28 2.44 7.2 9.33 4.08 17.17a14.7 14.7 0 0 1-10.3 8.19q10.42 8.67 21.66 16.29a142.11 142.11 0 0 1 17.73-5.27c11.85-2.82 18.14-.45 21.3 1.55 2.87 1.75 9.41 7.25 8.47 15.6a14.26 14.26 0 0 1-7.82 10.47q12.38 5.76 25.24 10.35a132.43 132.43 0 0 1 15.83-9.52c10.75-5.81 17.4-5.04 20.95-3.94 3.26.92 11.11 4.67 12.38 12.98a14.3 14.3 0 0 1-4.79 12.1 271.8 271.8 0 0 0 27.14 3.43 167 167 0 0 1 12.7-13.11c8.83-8.25 15.47-9.21 19.25-9.02 3.35.07 11.86 1.69 15.34 9.4a14.08 14.08 0 0 1-1.4 12.77 239.7 239.7 0 0 0 27.1-3.37 139.85 139.85 0 0 1 8.83-15.94c6.39-10.09 12.48-12.83 16.16-13.56 3.29-.69 11.92-1.39 17.3 5.18a14.13 14.13 0 0 1 2.08 12.83 253.08 253.08 0 0 0 25.31-10.1 124.74 124.74 0 0 1 4.3-17.62c3.42-11.53 8.63-15.56 11.96-17.24 3.02-1.63 11.17-4.45 18.14.57 1.8 1.37 5.83 5.87 5.4 11.84a262.08 262.08 0 0 0 21.7-16.26 129.52 129.52 0 0 1-.52-17.9c.27-11.94 4.2-17.24 6.97-19.66 2.48-2.22 9.61-7.04 17.66-3.9a14.19 14.19 0 0 1 8.37 10q8.87-10.13 16.71-21.08a146.11 146.11 0 0 1-5.34-17.37c-2.84-11.52-.49-17.65 1.56-20.76 1.86-2.79 7.46-9.21 16.03-8.29a14.75 14.75 0 0 1 10.81 7.72Q585.33 384.58 590 372l-1.12-1.6h77.26a7.12 7.12 0 0 0 7.12-7.12v-.01a7.12 7.12 0 0 0-7.12-7.12Zm-338.07 64.11a74.82 74.82 0 0 1-70.52-49.86h141.04a74.82 74.82 0 0 1-70.52 49.86ZM30.51 258.09H83.4v22.51H30.5v51.42H5.45V205.94h86.92v22.5H30.51Zm150.97 41.73a30.18 30.18 0 0 1-3.38 14.64 31.22 31.22 0 0 1-8.97 10.34 39.04 39.04 0 0 1-12.72 6.13 53.68 53.68 0 0 1-14.64 2.01 54.34 54.34 0 0 1-14.82-2.01 39.02 39.02 0 0 1-12.72-6.13 30.23 30.23 0 0 1-8.88-10.34 30.85 30.85 0 0 1-3.3-14.64v-26.17a30.17 30.17 0 0 1 3.4-14.64 31.2 31.2 0 0 1 8.96-10.34 40.39 40.39 0 0 1 12.81-6.22 52.5 52.5 0 0 1 14.73-2.1 54.48 54.48 0 0 1 15.28 2.1 37.27 37.27 0 0 1 12.63 6.31 29.95 29.95 0 0 1 8.51 10.52 32.97 32.97 0 0 1 3.11 14.74Zm-23.24-22.27a16.43 16.43 0 0 0-1.46-7.35 14.54 14.54 0 0 0-3.85-4.86 14.81 14.81 0 0 0-5.21-2.76 20.6 20.6 0 0 0-5.77-.83 22.55 22.55 0 0 0-5.94.83 14.36 14.36 0 0 0-9.25 7.62 16.39 16.39 0 0 0-1.46 7.35v18a17.98 17.98 0 0 0 1.37 7.44 13.33 13.33 0 0 0 3.75 4.96 14.6 14.6 0 0 0 5.31 2.75 22.72 22.72 0 0 0 6.22.83 20.46 20.46 0 0 0 5.77-.83 14.76 14.76 0 0 0 5.21-2.75 14.27 14.27 0 0 0 3.85-4.96 17.02 17.02 0 0 0 1.46-7.44Zm99-13.42a87.3 87.3 0 0 0-19.86 3.75 73.74 73.74 0 0 0-14.18 6.5v57.65h-23.24v-90.77h21.41l1.65 13.36h.18a39.32 39.32 0 0 1 6.32-4.94 66.72 66.72 0 0 1 8.5-4.67 63.38 63.38 0 0 1 9.52-3.48 36.13 36.13 0 0 1 9.7-1.37Zm33.12 29.47v2.93a16.26 16.26 0 0 0 1.38 6.95 13.04 13.04 0 0 0 3.66 4.76 15.74 15.74 0 0 0 5.21 2.74 20.64 20.64 0 0 0 6.22.92 47.7 47.7 0 0 0 9.52-1.19q5.67-1.19 12.08-6.31l12.8 15.92a46.03 46.03 0 0 1-8.41 6.5 43.1 43.1 0 0 1-8.42 3.84 41.63 41.63 0 0 1-8.5 1.83 82.39 82.39 0 0 1-8.7.46 56.7 56.7 0 0 1-15.28-2.01 37.86 37.86 0 0 1-12.72-6.14 30.67 30.67 0 0 1-8.78-10.34 31.26 31.26 0 0 1-3.3-14.82V276.2a36.28 36.28 0 0 1 3.02-15.1 32.08 32.08 0 0 1 8.33-11.25 36.85 36.85 0 0 1 12.26-6.96 46.11 46.11 0 0 1 15-2.38 48.98 48.98 0 0 1 15.56 2.38 35.37 35.37 0 0 1 12.26 6.87 31.52 31.52 0 0 1 8.05 11.07 36.63 36.63 0 0 1 2.93 15v17.76Zm30.93-17q0-7.6-4.57-11.13a17.17 17.17 0 0 0-10.8-3.53 16.17 16.17 0 0 0-10.98 3.98q-4.58 3.98-4.58 11.4v1.09h30.93Zm73.75 56.34q-4.94 0-9.98-.45a59 59 0 0 1-10.06-1.81 52.9 52.9 0 0 1-10.06-3.9 51.81 51.81 0 0 1-10.16-6.9l12.62-16.58a39.59 39.59 0 0 0 13.55 7.77 45.92 45.92 0 0 0 13.72 2.1 20.51 20.51 0 0 0 10.25-2.28q4.02-2.3 4.03-6.34a6.53 6.53 0 0 0-2.47-5.31q-2.48-2.02-8.7-3.12t-12.9-2.48a48.99 48.99 0 0 1-12.17-4.13 24.48 24.48 0 0 1-8.96-7.52q-3.48-4.77-3.48-12.66a25.99 25.99 0 0 1 2.93-12.56 27.36 27.36 0 0 1 7.68-9 34.3 34.3 0 0 1 10.9-5.4 44.09 44.09 0 0 1 12.71-1.84 91.9 91.9 0 0 1 19.58 1.92 44.3 44.3 0 0 1 17.39 8.5l-10.98 17.4a38.06 38.06 0 0 0-13.45-6.14 59.06 59.06 0 0 0-12.17-1.37q-6.04 0-8.88 2.38a7.02 7.02 0 0 0-2.84 5.49q0 3.48 3.66 4.94a52.48 52.48 0 0 0 9.25 2.56l11.98 2.38a46.53 46.53 0 0 1 11.99 4.12 25.7 25.7 0 0 1 9.24 7.87q3.66 5.03 3.66 13.63a24.73 24.73 0 0 1-3.02 12.45 27.45 27.45 0 0 1-8.23 8.96 37.67 37.67 0 0 1-12.08 5.5 56.34 56.34 0 0 1-14.55 1.82Zm46.66-72.47v-18.85h11.71l4.06-22.69h18.82v22.7h21.96v18.84h-21.96v37.57q0 6.38 2.1 10.03t9.8 3.64a42.94 42.94 0 0 0 5.85-.45 58.59 58.59 0 0 0 7.32-1.56l4.2 19.92a48.17 48.17 0 0 1-12.16 2.86q-6.31.64-10.7.64a38.84 38.84 0 0 1-14.62-2.37 21.5 21.5 0 0 1-9.13-6.68 25.28 25.28 0 0 1-4.61-10.25 60.82 60.82 0 0 1-1.3-12.9v-40.45Zm96.08 33.13v2.93a16.26 16.26 0 0 0 1.37 6.95 13.03 13.03 0 0 0 3.66 4.76 15.73 15.73 0 0 0 5.22 2.74 20.65 20.65 0 0 0 6.22.92 47.72 47.72 0 0 0 9.51-1.19q5.67-1.19 12.08-6.31l12.81 15.92a45.97 45.97 0 0 1-8.42 6.5 43.04 43.04 0 0 1-8.42 3.84 41.61 41.61 0 0 1-8.5 1.83 82.42 82.42 0 0 1-8.7.46 56.7 56.7 0 0 1-15.28-2.01 37.86 37.86 0 0 1-12.72-6.14 30.66 30.66 0 0 1-8.78-10.33 31.26 31.26 0 0 1-3.3-14.83v-23.43a36.26 36.26 0 0 1 3.03-15.1 32.07 32.07 0 0 1 8.32-11.25 36.84 36.84 0 0 1 12.26-6.96 46.1 46.1 0 0 1 15-2.38 49 49 0 0 1 15.56 2.38 35.37 35.37 0 0 1 12.26 6.87 31.52 31.52 0 0 1 8.05 11.07 36.63 36.63 0 0 1 2.93 15v17.76Zm30.93-17q0-7.6-4.58-11.13a17.17 17.17 0 0 0-10.8-3.53 16.16 16.16 0 0 0-10.98 3.98q-4.58 3.98-4.58 11.4v1.09h30.93Zm98.45-12.46a87.3 87.3 0 0 0-19.86 3.75 73.74 73.74 0 0 0-14.18 6.5v57.64h-23.24v-90.77h21.41l1.65 13.36h.18a39.33 39.33 0 0 1 6.31-4.94 66.76 66.76 0 0 1 8.51-4.67 63.4 63.4 0 0 1 9.52-3.48 36.12 36.12 0 0 1 9.7-1.37Z" data-name="Layer 1"/>
  </g>
</svg>
