<svg width="18" height="18" fill="none" xmlns="http://www.w3.org/2000/svg"><g clip-path="url(#clip0_114_374)" fill="#E09D64"><path d="M17.996 5.51a4.285 4.285 0 10-4.285 4.284c.487 0 .952-.085 1.388-.234-.964 5.53-5.277 9.097-1.279 6.162C18.253 12.466 18 5.64 17.996 5.514V5.51zm-9.426 0a4.285 4.285 0 10-4.285 4.284c.486 0 .952-.085 1.388-.234-.965 5.53-5.277 9.097-1.28 6.162C8.826 12.466 8.574 5.64 8.57 5.514V5.51z"/></g><defs><clipPath id="clip0_114_374"><path fill="#fff" transform="rotate(-180 9 9)" d="M0 0h18v18H0z"/></clipPath></defs></svg>